STARTFONT 2.1
FONT -DEC-Present Bullets-Medium-R-Normal--10-100-100-100-P-123-DEC-FontSpecific
SIZE 10 100 100
FONTBOUNDINGBOX 19 11 0 -1

STARTPROPERTIES 10
COPYRIGHT "Copyright 1990,  Digital Equipment Corporation Created by Loree Nelson, The Artis Consultancy"
POINT_SIZE 100
WEIGHT 10
RESOLUTION_X 100
RESOLUTION_Y 100
X_HEIGHT 9
QUAD_WIDTH 11
DEFAULT_CHAR 0
FONT_DESCENT 2
FONT_ASCENT 11
ENDPROPERTIES

CHARS 59

STARTCHAR space
ENCODING 32
SWIDTH 250 0
DWIDTH 3 0
BBX 0 0 0 0
BITMAP
ENDCHAR

STARTCHAR A
ENCODING 65
SWIDTH 704 0
DWIDTH 9 0
BBX 7 8 0 1
BITMAP
06
04
FE
8A
AA
BA
92
FE
ENDCHAR

STARTCHAR B
ENCODING 66
SWIDTH 616 0
DWIDTH 8 0
BBX 7 9 0 0
BITMAP
04
0E
0C
1C
18
50
F0
60
20
ENDCHAR

STARTCHAR C
ENCODING 67
SWIDTH 740 0
DWIDTH 10 0
BBX 7 9 0 0
BITMAP
80
40
30
08
06
08
30
40
80
ENDCHAR

STARTCHAR D
ENCODING 68
SWIDTH 953 0
DWIDTH 12 0
BBX 12 10 0 0
BITMAP
0600
0600
0900
F9F0
2040
1080
1080
1080
2F40
30C0
ENDCHAR

STARTCHAR E
ENCODING 69
SWIDTH 1048 0
DWIDTH 14 0
BBX 12 10 0 0
BITMAP
0600
0600
0F00
FFF0
3FC0
1F80
1F80
1F80
3FC0
30C0
ENDCHAR

STARTCHAR F
ENCODING 70
SWIDTH 732 0
DWIDTH 10 0
BBX 9 9 0 0
BITMAP
0800
0C00
FE00
FF00
FF80
FF00
FE00
0C00
0800
ENDCHAR

STARTCHAR G
ENCODING 71
SWIDTH 732 0
DWIDTH 10 0
BBX 9 9 0 0
BITMAP
0800
0C00
FA00
8100
8080
8100
FA00
0C00
0800
ENDCHAR

STARTCHAR H
ENCODING 72
SWIDTH 1000 0
DWIDTH 13 0
BBX 15 2 0 0
BITMAP
00FE
FFFE
ENDCHAR

STARTCHAR I
ENCODING 73
SWIDTH 787 0
DWIDTH 10 0
BBX 7 9 0 0
BITMAP
E0
F8
3C
0C
06
06
06
06
06
ENDCHAR

STARTCHAR J
ENCODING 74
SWIDTH 756 0
DWIDTH 10 0
BBX 7 10 0 -1
BITMAP
80
46
2C
38
10
38
28
6C
44
04
ENDCHAR

STARTCHAR K
ENCODING 75
SWIDTH 935 0
DWIDTH 12 0
BBX 9 10 0 0
BITMAP
C180
6300
3600
1400
1C00
1C00
1400
3600
6300
C180
ENDCHAR

STARTCHAR L
ENCODING 76
SWIDTH 1000 0
DWIDTH 13 0
BBX 11 9 0 0
BITMAP
3000
5800
B400
6B00
1680
0D40
02A0
0160
00E0
ENDCHAR

STARTCHAR M
ENCODING 77
SWIDTH 1440 0
DWIDTH 19 0
BBX 17 9 0 -1
BITMAP
07F000
0FFC00
3FFE00
F7F780
EE1B80
DE1D80
3FFE00
7FFF00
7FFF00
ENDCHAR

STARTCHAR N
ENCODING 78
SWIDTH 1292 0
DWIDTH 17 0
BBX 13 8 0 0
BITMAP
7FF0
FFF8
DFD8
3DE0
3760
7DF0
7FF0
7FF0
ENDCHAR

STARTCHAR O
ENCODING 79
SWIDTH 1488 0
DWIDTH 19 0
BBX 18 8 1 0
BITMAP
1FFFC0
780F80
98B000
98F000
BC5000
B3B000
F07000
E03000
ENDCHAR

STARTCHAR P
ENCODING 80
SWIDTH 1292 0
DWIDTH 17 0
BBX 13 6 0 1
BITMAP
9FF8
A078
AFC0
B040
BFC0
0F80
ENDCHAR

STARTCHAR Q
ENCODING 81
SWIDTH 844 0
DWIDTH 11 0
BBX 9 9 0 0
BITMAP
3000
1000
1800
9800
7F80
D800
1800
1000
3000
ENDCHAR

STARTCHAR R
ENCODING 82
SWIDTH 1195 0
DWIDTH 16 0
BBX 10 9 0 0
BITMAP
3F00
4080
4080
7F80
BF40
FFC0
FFC0
4080
4080
ENDCHAR

STARTCHAR S
ENCODING 83
SWIDTH 1376 0
DWIDTH 18 0
BBX 16 8 0 0
BITMAP
FFFF
C003
B00D
8C31
8BD1
9009
A005
FFFF
ENDCHAR

STARTCHAR T
ENCODING 84
SWIDTH 1098 0
DWIDTH 14 0
BBX 11 11 0 -1
BITMAP
20A0
2080
DF60
3180
1480
2440
2440
2240
1080
1F80
1180
ENDCHAR

STARTCHAR U
ENCODING 85
SWIDTH 992 0
DWIDTH 13 0
BBX 10 10 1 0
BITMAP
4C80
1E00
A140
2D00
2D00
1200
1E00
1E00
1E00
0C00
ENDCHAR

STARTCHAR V
ENCODING 86
SWIDTH 1175 0
DWIDTH 15 0
BBX 12 9 0 0
BITMAP
7F00
4100
4100
4100
7F00
3E00
7FC0
7F20
FFB0
ENDCHAR

STARTCHAR W
ENCODING 87
SWIDTH 790 0
DWIDTH 10 0
BBX 8 9 0 0
BITMAP
3C
C2
E7
99
89
89
89
6A
1C
ENDCHAR

STARTCHAR X
ENCODING 88
SWIDTH 860 0
DWIDTH 11 0
BBX 8 9 0 0
BITMAP
FF
F7
07
03
01
03
07
F7
FF
ENDCHAR

STARTCHAR Y
ENCODING 89
SWIDTH 804 0
DWIDTH 10 0
BBX 10 10 0 0
BITMAP
0C00
0E00
FB00
8580
FAC0
82C0
8580
FB00
0E00
0C00
ENDCHAR

STARTCHAR Z
ENCODING 90
SWIDTH 1220 0
DWIDTH 16 0
BBX 13 9 0 0
BITMAP
8000
7800
2700
10E0
0FF8
0FF0
1F00
3800
4000
ENDCHAR

STARTCHAR bracketleft
ENCODING 91
SWIDTH 1260 0
DWIDTH 16 0
BBX 13 7 0 0
BITMAP
0080
00C0
0070
FFF8
0070
00C0
0080
ENDCHAR

STARTCHAR backslash
ENCODING 92
SWIDTH 915 0
DWIDTH 12 0
BBX 9 9 0 0
BITMAP
1C00
4900
7F00
AA80
D580
AA80
7F00
4900
1C00
ENDCHAR

STARTCHAR bracketright
ENCODING 93
SWIDTH 1292 0
DWIDTH 17 0
BBX 13 5 0 2
BITMAP
1FF8
BF80
BF80
BF80
9F80
ENDCHAR

STARTCHAR asciicircum
ENCODING 94
SWIDTH 940 0
DWIDTH 12 0
BBX 7 1 2 4
BITMAP
FE
ENDCHAR

STARTCHAR underscore
ENCODING 95
SWIDTH 1164 0
DWIDTH 15 0
BBX 12 1 1 4
BITMAP
FFF0
ENDCHAR

STARTCHAR grave
ENCODING 96
SWIDTH 720 0
DWIDTH 9 0
BBX 6 6 1 2
BITMAP
78
84
84
84
84
78
ENDCHAR

STARTCHAR a
ENCODING 97
SWIDTH 720 0
DWIDTH 9 0
BBX 6 6 1 2
BITMAP
78
FC
FC
FC
FC
78
ENDCHAR

STARTCHAR b
ENCODING 98
SWIDTH 1272 0
DWIDTH 17 0
BBX 13 6 1 1
BITMAP
0070
0CF8
DEF8
DEF8
0CF8
0070
ENDCHAR

STARTCHAR c
ENCODING 99
SWIDTH 556 0
DWIDTH 7 0
BBX 5 9 0 0
BITMAP
C0
E0
F0
F8
F8
F8
F0
E0
C0
ENDCHAR

STARTCHAR d
ENCODING 100
SWIDTH 616 0
DWIDTH 8 0
BBX 5 10 1 0
BITMAP
80
60
10
10
18
18
30
70
E0
C0
ENDCHAR

STARTCHAR e
ENCODING 101
SWIDTH 956 0
DWIDTH 12 0
BBX 9 9 1 0
BITMAP
0C00
0300
0080
0080
0100
0600
1C00
3800
F000
ENDCHAR

STARTCHAR f
ENCODING 102
SWIDTH 932 0
DWIDTH 12 0
BBX 10 9 0 0
BITMAP
0400
0E00
0E00
1F00
1900
3980
3880
70C0
FFC0
ENDCHAR

STARTCHAR g
ENCODING 103
SWIDTH 956 0
DWIDTH 12 0
BBX 12 8 1 1
BITMAP
0600
0600
0F00
1F80
1F80
3FC0
7FE0
FFF0
ENDCHAR

STARTCHAR h
ENCODING 104
SWIDTH 620 0
DWIDTH 8 0
BBX 7 9 1 0
BITMAP
10
38
38
7C
FE
7C
38
38
10
ENDCHAR

STARTCHAR i
ENCODING 105
SWIDTH 620 0
DWIDTH 8 0
BBX 7 9 1 0
BITMAP
10
38
38
6C
E6
6C
38
38
10
ENDCHAR

STARTCHAR j
ENCODING 106
SWIDTH 1023 0
DWIDTH 13 0
BBX 11 7 1 2
BITMAP
0E00
1F00
7FC0
FFE0
7FC0
1F00
0E00
ENDCHAR

STARTCHAR k
ENCODING 107
SWIDTH 930 0
DWIDTH 12 0
BBX 7 9 3 0
BITMAP
10
10
38
38
FE
38
38
10
10
ENDCHAR

STARTCHAR l
ENCODING 108
SWIDTH 548 0
DWIDTH 7 0
BBX 6 9 1 0
BITMAP
C0
E0
F0
F8
FC
F8
F0
E0
C0
ENDCHAR

STARTCHAR m
ENCODING 109
SWIDTH 896 0
DWIDTH 12 0
BBX 9 3 1 3
BITMAP
FF80
7C00
3000
ENDCHAR

STARTCHAR n
ENCODING 110
SWIDTH 1000 0
DWIDTH 13 0
BBX 10 5 2 2
BITMAP
C000
3C00
07C0
0600
1800
ENDCHAR

STARTCHAR o
ENCODING 111
SWIDTH 1000 0
DWIDTH 13 0
BBX 13 4 0 3
BITMAP
0180
01C0
FFF0
FFF8
ENDCHAR

STARTCHAR p
ENCODING 112
SWIDTH 1096 0
DWIDTH 14 0
BBX 13 4 0 2
BITMAP
1FF8
3FF0
7FE0
FFE0
ENDCHAR

STARTCHAR q
ENCODING 113
SWIDTH 704 0
DWIDTH 9 0
BBX 8 10 0 0
BITMAP
0F
0F
0F
1E
1E
3C
3C
78
78
F8
ENDCHAR

STARTCHAR r
ENCODING 114
SWIDTH 1036 0
DWIDTH 13 0
BBX 12 10 1 0
BITMAP
0010
0030
0030
0060
0060
00E0
00C0
01C0
0380
FF80
ENDCHAR

STARTCHAR s
ENCODING 115
SWIDTH 1264 0
DWIDTH 16 0
BBX 13 10 2 0
BITMAP
0008
0008
0008
0018
0038
0078
00F8
01F8
07F8
FFF8
ENDCHAR

STARTCHAR t
ENCODING 116
SWIDTH 884 0
DWIDTH 11 0
BBX 8 8 0 1
BITMAP
FE
83
83
83
83
83
83
7F
ENDCHAR

STARTCHAR u
ENCODING 117
SWIDTH 844 0
DWIDTH 11 0
BBX 7 6 0 2
BITMAP
FE
FE
FE
FE
FE
FE
ENDCHAR

STARTCHAR v
ENCODING 118
SWIDTH 1176 0
DWIDTH 15 0
BBX 12 5 0 2
BITMAP
FFF0
FFF0
FFF0
FFF0
FFF0
ENDCHAR

STARTCHAR w
ENCODING 119
SWIDTH 1252 0
DWIDTH 16 0
BBX 13 6 0 1
BITMAP
FEA8
FEA8
FEA8
FEA8
FEA8
FEA8
ENDCHAR

STARTCHAR x
ENCODING 120
SWIDTH 1244 0
DWIDTH 16 0
BBX 15 9 0 0
BITMAP
0020
0030
AFF8
AFFC
AFFE
AFFC
AFF8
0030
0020
ENDCHAR

STARTCHAR y
ENCODING 121
SWIDTH 864 0
DWIDTH 11 0
BBX 8 5 0 2
BITMAP
FD
9D
9D
9D
FD
ENDCHAR

STARTCHAR z
ENCODING 122
SWIDTH 704 0
DWIDTH 9 0
BBX 6 5 0 2
BITMAP
FC
84
84
84
FC
ENDCHAR
ENDFONT
